<?xml version="1.0" encoding="utf-8"?>
<!-- Generator: Adobe Illustrator 26.1.0, SVG Export Plug-In . SVG Version: 6.00 Build 0)  -->
<svg version="1.1" id="Layer_1" xmlns="http://www.w3.org/2000/svg" xmlns:xlink="http://www.w3.org/1999/xlink" x="0px" y="0px"
	 viewBox="0 0 473 481" style="enable-background:new 0 0 473 481;" xml:space="preserve">
<style type="text/css">
	.st0{fill:#DD765B;stroke:#DD765B;stroke-width:9;stroke-linecap:round;stroke-miterlimit:10;}
	.st1{fill:#365A80;}
	.st2{fill:#DD765B;}
	.st3{display:none;fill:none;}
</style>
<g>
	<line class="st0" x1="65.3" y1="207.5" x2="65.3" y2="252.5"/>
	<line class="st0" x1="134.3" y1="207.5" x2="134.3" y2="252.5"/>
	<line class="st0" x1="148.3" y1="219" x2="148.3" y2="240.5"/>
	<line class="st0" x1="52.3" y1="219" x2="52.3" y2="240.5"/>
	<line class="st0" x1="65.3" y1="230" x2="134.3" y2="230"/>
	<g>
		<path class="st1" d="M169.37,205.58h12.96c13.61,0,22.56,7.13,22.56,23.25c0,16.14-8.95,23.68-21.97,23.68h-13.56V205.58z
			 M181.75,243.95c7.3,0,12.27-3.9,12.27-15.12c0-11.21-4.96-14.69-12.27-14.69h-1.76v29.82H181.75z"/>
		<path class="st1" d="M211.76,245.62l6.1-6.58c2.68,3.35,5.86,5.15,8.96,5.15c4.77,0,7.23-2.09,7.23-8.51v-21.22h-18.33v-8.9h28.97
			v30.99c0,9.2-4.53,16.82-17.52,16.82C221.96,253.36,215.85,251.33,211.76,245.62z"/>
		<path class="st2" d="M263.93,244.91c0-4.69,3.42-8.46,8.38-8.46c4.96,0,8.38,3.77,8.38,8.46c0,4.76-3.42,8.46-8.38,8.46
			C267.35,253.36,263.93,249.67,263.93,244.91z"/>
		<path class="st1" d="M298.05,205.58h11.14l4.6,16.63l1.58,6.49h0.29l1.56-6.49l4.62-16.63h11.14v46.92h-8.98v-14.53
			c0-5.28,0.93-16.73,1.42-21.8h-0.22l-3.6,12.59l-3.65,11.3h-5.15l-3.71-11.3l-3.36-12.59h-0.25c0.54,5.07,1.42,16.51,1.42,21.8
			v14.53h-8.84V205.58z"/>
		<path class="st1" d="M342.47,205.58h16.65c10.18,0,18.38,3.68,18.38,15.09c0,11.05-8.43,15.92-18.38,15.92h-6.03v15.92h-10.62
			V205.58z M358.5,228.15c5.82,0,8.58-2.61,8.58-7.49c0-4.9-2.99-6.66-8.58-6.66h-5.41v14.15H358.5z"/>
		<path class="st1" d="M385.67,205.58h16.65c10.18,0,18.38,3.68,18.38,15.09c0,11.05-8.43,15.92-18.38,15.92h-6.03v15.92h-10.62
			V205.58z M401.7,228.15c5.82,0,8.58-2.61,8.58-7.49c0-4.9-2.99-6.66-8.58-6.66h-5.41v14.15H401.7z"/>
	</g>
</g>
<rect class="st3" width="473" height="481"/>
</svg>
